<?xml version="1.0" encoding="UTF-8"?><svg width="24px" height="24px" stroke-width="1.5" viewBox="0 0 24 24" fill="none" xmlns="http://www.w3.org/2000/svg" color="#000000"><path d="M7 14a2 2 0 100-4 2 2 0 000 4zM17 14a2 2 0 100-4 2 2 0 000 4zM12 9a2 2 0 100-4 2 2 0 000 4zM12 19a2 2 0 100-4 2 2 0 000 4z" stroke="#000000" stroke-width="1.5" stroke-linecap="round" stroke-linejoin="round"></path><path d="M2 12c0 5.523 4.477 10 10 10s10-4.477 10-10S17.523 2 12 2 2 6.477 2 12zm0 0v10" stroke="#000000" stroke-width="1.5" stroke-linecap="round" stroke-linejoin="round"></path></svg>