<?xml version="1.0" encoding="UTF-8"?><svg width="24px" stroke-width="1.5" height="24px" viewBox="0 0 24 24" fill="none" xmlns="http://www.w3.org/2000/svg" color="#000000"><path d="M4 19V5a2 2 0 012-2h13.4a.6.6 0 01.6.6v13.114" stroke="#000000" stroke-width="1.5" stroke-linecap="round"></path><path d="M14 10h.4a.6.6 0 01.6.6v2.8a.6.6 0 01-.6.6H9.6a.6.6 0 01-.6-.6v-2.8a.6.6 0 01.6-.6h.4m4 0V8c0-.667-.4-2-2-2s-2 1.333-2 2v2m4 0h-4" stroke="#000000" stroke-width="1.5" stroke-linecap="round" stroke-linejoin="round"></path><path d="M6 17h14M6 21h14" stroke="#000000" stroke-width="1.5" stroke-linecap="round"></path><path d="M6 21a2 2 0 110-4" stroke="#000000" stroke-width="1.5" stroke-linecap="round" stroke-linejoin="round"></path></svg>