<?xml version="1.0" encoding="UTF-8"?><svg width="24px" height="24px" stroke-width="1.5" viewBox="0 0 24 24" fill="none" xmlns="http://www.w3.org/2000/svg" color="#000000"><path d="M3 15c2.483 0 4.345-3 4.345-3s1.862 3 4.345 3c2.482 0 4.965-3 4.965-3s2.483 3 4.345 3M3 20c2.483 0 4.345-3 4.345-3s1.862 3 4.345 3c2.482 0 4.965-3 4.965-3s2.483 3 4.345 3M5 10.5L9 8 7.813 6.516a1.262 1.262 0 01.228-1.797v0a1.261 1.261 0 011.726.202L14 10M16.5 8a2.5 2.5 0 100-5 2.5 2.5 0 000 5z" stroke="#000000" stroke-width="1.5" stroke-linecap="round" stroke-linejoin="round"></path></svg>