<?xml version="1.0" encoding="UTF-8"?><svg width="24px" height="24px" stroke-width="1.5" viewBox="0 0 24 24" fill="none" xmlns="http://www.w3.org/2000/svg" color="#000000"><path d="M18.4 4s-1.6 3.75-1.6 6.857c0 .995.34 1.827.8 2.656.528.954 1.214 1.903 1.717 3.09.399.943.683 2.034.683 3.397M5.6 4s1.6 3.75 1.6 6.857c0 .995-.34 1.827-.8 2.656-.528.954-1.214 1.903-1.717 3.09A8.483 8.483 0 004 20M6.4 13.513h11.2" stroke="#000000" stroke-width="1.5" stroke-linecap="round" stroke-linejoin="round"></path><path d="M4.683 16.604S10.4 17.713 12 20c1.6-2.286 7.317-3.396 7.317-3.396" stroke="#000000" stroke-width="1.5" stroke-linecap="round" stroke-linejoin="round"></path></svg>